<svg viewBox="0 0 91 91" xml:space="preserve" xmlns="http://www.w3.org/2000/svg"><path d="M64.923 49.479c-5.147 4.697-11.896 7.575-19.285 7.575-7.321 0-14.208-2.823-19.338-7.449-.044.029-.481.073-.532.097-8.455 4.138-13.924 11.284-13.924 20.129v17.941h66.641V69.827c-.001-8.811-4.954-16.214-13.562-20.348z" fill="#7cb7e6" class="fill-e0f1f8"></path><path d="M73.064 30.357c0 15.162-12.211 27.453-27.279 27.453-15.061 0-27.27-12.291-27.27-27.453 0-15.158 12.209-27.456 27.27-27.456 15.069 0 27.279 12.298 27.279 27.456z" fill="#fde9d0" class="fill-fde9d0"></path><path d="M45.785 60.323c-16.422 0-29.782-13.442-29.782-29.966 0-16.525 13.36-29.969 29.782-29.969 16.427 0 29.791 13.443 29.791 29.969 0 16.524-13.364 29.966-29.791 29.966zm0-54.909c-13.651 0-24.757 11.189-24.757 24.943 0 13.752 11.105 24.94 24.757 24.94 13.656 0 24.766-11.188 24.766-24.94 0-13.753-11.11-24.943-24.766-24.943z" fill="#454b53" class="fill-454b53"></path><path d="M79.613 90.284a2.513 2.513 0 0 1-2.514-2.513V66.14c0-7.197-3.831-12.229-11.714-15.38a2.514 2.514 0 0 1 1.866-4.666c9.731 3.891 14.874 10.822 14.874 20.046v21.632a2.512 2.512 0 0 1-2.512 2.512zM12.399 90.284a2.513 2.513 0 0 1-2.513-2.513V66.144c0-9.077 5.027-15.955 14.54-19.891a2.513 2.513 0 0 1 1.921 4.642c-7.695 3.185-11.436 8.172-11.436 15.248v21.628a2.511 2.511 0 0 1-2.512 2.513zM45.788 48.133c-6.103 0-11.544-3.926-13.538-9.768a2.511 2.511 0 1 1 4.755-1.623c1.299 3.807 4.829 6.365 8.782 6.365 3.948 0 7.479-2.56 8.788-6.369a2.509 2.509 0 0 1 3.191-1.561 2.51 2.51 0 0 1 1.561 3.191c-2.003 5.841-7.444 9.765-13.539 9.765zM38.067 29.764h-3.394a2.513 2.513 0 1 1 0-5.026h3.394a2.513 2.513 0 1 1 0 5.026zM57.335 29.764H53.94a2.513 2.513 0 0 1 0-5.026h3.395a2.513 2.513 0 1 1 0 5.026z" fill="#454b53" class="fill-454b53"></path></svg>