<?xml version="1.0" ?><svg height="64" viewBox="0 0 64 64" width="64" xmlns="http://www.w3.org/2000/svg"><title/><g data-name="set-016@doctor-white-male" id="abb8427d-2103-47a0-bb9b-cdfce89582cc"><g data-name="doctor-white-male" id="b7a7e0f4-679f-4ab3-ab8f-d381be24c240"><g data-name="doctor-white-male-2" id="f29a5e94-8eda-4e93-87bc-3351f44c0a23"><g data-name="Icons" id="feec4510-31c7-4b74-955e-d00be93773c7"><path d="M53.31,43.222,41,39.382H23l-12.31,3.85a6,6,0,0,0-4.16,5L6,52.382c7.89,3.5,17.36,5,26,5s18.11-1.49,26-5l-.52-4.17A6,6,0,0,0,53.31,43.222Z" fill="#e0ebee"/><path d="M58,52.382,57.71,50a6.132,6.132,0,0,0-3.57-2.81l-12.79-3.81H22.65L9.87,47.222A6.157,6.157,0,0,0,6.3,50L6,52.382c7.89,3.5,17.36,5,26,5S50.11,55.882,58,52.382Z" fill="#cedde1"/><path d="M27.94,57.252c-.58-1.07-4.94-9.47-4.94-17.87h0l-3.83,1.2L16,47l5,3-2.24,6.24A71.808,71.808,0,0,0,27.94,57.252Z" fill="#eaf2f3"/><polyline fill="none" points="19.17 40.572 16 46.952 21 49.952 18.77 56.202" stroke="#c5d5d8" stroke-linejoin="round"/><path d="M36.06,57.252c.58-1.07,4.94-9.47,4.94-17.87h0l3.83,1.2L48,47l-5,3,2.24,6.24A71.808,71.808,0,0,1,36.06,57.252Z" fill="#eaf2f3"/><polyline fill="none" points="44.83 40.572 48 46.952 43 49.952 45.23 56.202" stroke="#c5d5d8" stroke-linejoin="round"/><path d="M36,57.372s5-9,5-18H23c0,9,5,18,5,18" fill="#6d797d" stroke="#343433" stroke-linejoin="round" stroke-width="1.5"/><polygon fill="#e5c2ba" points="37.97 42.392 31.97 47.382 25.97 42.392 25.97 35.392 37.97 35.392 37.97 42.392"/><path d="M32,57.382c1.21,0,2.44,0,3.67-.1C34.7,54,33,48.372,33,48.372H31l-2.67,8.91C29.56,57.342,30.79,57.382,32,57.382Z" fill="#4994c4" stroke="#343433" stroke-linejoin="round" stroke-width="1.5"/><path d="M35.67,57.282C34.7,54,33,48.372,33,48.372H31l-2.67,8.91" fill="none" stroke="#343433" stroke-miterlimit="10" stroke-width="1.5"/><path d="M32.29,48.372l.21,3a.49.49,0,0,1-.448.529H32.03a.5.5,0,0,1-.53-.468v-.072l.21-3a.291.291,0,0,1,.309-.27h0A.31.31,0,0,1,32.29,48.372Z" fill="#343433"/><polygon fill="#4994c4" points="32 43.372 29.33 46.712 31 48.372 33 48.372 34.58 46.592 32 43.372" stroke="#343433" stroke-linejoin="round" stroke-width="1.5"/><path d="M25,36.372s1.53,3.51,7,7l-4,5c-3-3-5-7-5-9Z" fill="#6d797d" stroke="#343433" stroke-linejoin="round" stroke-width="1.5"/><path d="M39,36.372s-1.53,3.51-7,7l4,5c3-3,5-7,5-9Z" fill="#6d797d" stroke="#343433" stroke-linejoin="round" stroke-width="1.5"/><path d="M41,39.382l12.31,3.85a6,6,0,0,1,4.16,5l.53,4.15c-7.89,3.5-17.36,5-26,5s-18.11-1.49-26-5l.52-4.17a6,6,0,0,1,4.16-5L23,39.382" fill="none" stroke="#343433" stroke-linejoin="round" stroke-width="1.5"/><path d="M18,45.382s5,7,5,10c0,1.17-1,2-3,2" fill="none" stroke="#333" stroke-linejoin="round" stroke-width="1.5"/><path d="M16,57.382c-2,0-3-.83-3-2,0-3,5-10,5-10" fill="none" stroke="#333" stroke-linejoin="round" stroke-width="1.5"/><path d="M45.22,51.382v-11a3.83,3.83,0,0,0-3.65-4,2.045,2.045,0,0,0-.35,0h-2" fill="none" stroke="#333" stroke-linejoin="round" stroke-width="1.5"/><path d="M18,46.382v-6a3.83,3.83,0,0,1,3.65-4H25" fill="none" stroke="#333" stroke-linejoin="round" stroke-width="1.5"/><path d="M48.72,54.882a3.5,3.5,0,1,1-3.5-3.5A3.5,3.5,0,0,1,48.72,54.882Z" fill="#e0ebee"/><circle cx="45.22" cy="54.882" fill="#333" r="1"/><path d="M48.72,54.882a3.5,3.5,0,1,1-3.5-3.5A3.5,3.5,0,0,1,48.72,54.882Z" fill="none" stroke="#333" stroke-linejoin="round" stroke-width="1.5"/><circle cx="16" cy="57.382" fill="#333" r="1"/><circle cx="20" cy="57.382" fill="#333" r="1"/><polyline fill="none" points="25.97 37.952 25.97 35.392 37.97 35.392 37.97 38.022" stroke="#333" stroke-linejoin="round" stroke-width="1.5"/><path d="M32,40.2a8.359,8.359,0,0,1-3.5-.54c-3.41-1.82-6.82-5.81-6.82-8.2V29.4a4.838,4.838,0,0,1-2.86-3.77c-.47-2.25-.25-4.13,1.85-4.13v-3c0-5.16,3.16-10.32,11.36-10.32s11.34,5.31,11.34,10.47v3c2.07,0,2.31,1.77,1.83,4a4.89,4.89,0,0,1-2.86,3.74v2.06c0,2.4-3.38,6.39-6.82,8.2A8.64,8.64,0,0,1,32,40.2Z" fill="#edccc3"/><path d="M43.36,21.652v-3c0-5.16-3.14-10.47-11.34-10.47a16.749,16.749,0,0,0-3.12.29v10.41c0,2.06-2.07,2.06-2.07,3.1a3.681,3.681,0,0,1,3.1,2.07h1.55a.52.52,0,0,1,.52.52v1.78a1.48,1.48,0,0,0,.61,1.21,1,1,0,0,1-.61,1.87c-.76,0-.64-.52-1.68-.52a1.093,1.093,0,0,0-.88.47.209.209,0,0,0,0,.23.259.259,0,0,0,.19.13c1.65.06,1,.62,2.38.64v4.51a.52.52,0,0,0,.52.52h0a1.55,1.55,0,1,1,0,3.1H31a2,2,0,0,0-1.91,1.34A8.651,8.651,0,0,0,32,40.2a8.359,8.359,0,0,0,3.5-.54c3.45-1.81,6.82-5.8,6.82-8.2v-2.07a4.867,4.867,0,0,0,2.86-3.74C45.67,23.412,45.42,21.652,43.36,21.652Z" fill="#e5c2ba"/><path d="M41.33,23.642V25.9a2,2,0,0,1-.65,1.47l-1.38,1.29A4,4,0,0,0,38,31.6V38c2.42-2,4.34-4.72,4.34-6.52V29.4a4.867,4.867,0,0,0,2.86-3.74c.49-2.25.24-4-1.83-4A2.11,2.11,0,0,0,41.33,23.642Z" fill="#ddbbb6"/><path d="M43.68,21.692c-.107,0-.213,0-.32,0v-3c0-5.16-3.14-10.47-11.34-10.47s-11.36,5.1-11.36,10.26v3a2.21,2.21,0,0,0-.38.05,11.751,11.751,0,0,1,1.21,2.92c.08.38,1,.58,1,.18,0-1.27.08-4.85.08-4.85,11.12,0,10.59-3.6,13.82-4.35.93,3.2,4.52,3.43,4.75,4,0-.1.36,4.26.37,4.37a.719.719,0,0,0,.65.65,15.4,15.4,0,0,1,1.52-2.77Z" fill="#e5c2ba"/><path d="M43.68,21.692c-.107,0-.213,0-.32,0v-3c0-5.16-3.14-10.47-11.34-10.47a16.3,16.3,0,0,0-2.71.22v10.27a2.036,2.036,0,0,1-.06.44c4.4-1.07,4.75-3.15,7.12-3.69.93,3.2,4.52,3.43,4.75,4,.05-.1,0,4.51,0,4.61,0,.34.63.38,1,.4a15.4,15.4,0,0,1,1.52-2.77Z" fill="#d8b3ad"/><path d="M24.61,28.742l-1.34-1.31a2.09,2.09,0,0,1-.63-1.49v-1.76c0-.29-.5-2.69-2-2.69-2.1,0-2.32,1.88-1.85,4.13a4.851,4.851,0,0,0,2.86,3.77v2.07c0,1.76,1.85,4.38,4.19,6.37V31.7A4.13,4.13,0,0,0,24.61,28.742Z" fill="#e5c2ba"/><path d="M33.41,32.352a2.855,2.855,0,0,0-1.22.14.635.635,0,0,1-.43,0,3,3,0,0,0-1.22-.14c-.69.1-.76.54-2.16,1.3l1.23.76a2.344,2.344,0,0,0,1.31.42h2.13a2.344,2.344,0,0,0,1.31-.42l1.27-.73C34.24,32.922,34.1,32.452,33.41,32.352Z" fill="#ddbab6"/><path d="M35.63,33.812a3.5,3.5,0,0,1-1-.07,6.157,6.157,0,0,0-.88-.2,5.432,5.432,0,0,0-1.73.19h-.13a6.006,6.006,0,0,0-1.72-.18,6.6,6.6,0,0,0-.88.18,3.424,3.424,0,0,1-1,.05.14.14,0,0,1-.13-.149h0a.141.141,0,0,1,.13-.13,4.827,4.827,0,0,0,.86-.16,8.079,8.079,0,0,1,.9-.28,4.762,4.762,0,0,1,1.92.09h-.12a5.017,5.017,0,0,1,1.93-.07,10.013,10.013,0,0,0,1.77.46.13.13,0,0,1,.13.13v.01A.119.119,0,0,1,35.63,33.812Z" fill="#af8582"/><path d="M29.47,29.852a2.331,2.331,0,0,1,1.26.38h0a2.279,2.279,0,0,0,2.53,0h0a2.348,2.348,0,0,1,1.26-.38" fill="none" stroke="#af8582" stroke-linecap="round" stroke-miterlimit="10" stroke-width="0.75"/><path d="M20.47,18.182v3.38a1.3,1.3,0,0,1,1.29.71v-2.8c0-7.59,3.45-11.23,13.06-11.49a11.747,11.747,0,0,1,2.77.19,13.894,13.894,0,0,0-5.76-1C23.87,7.082,20.47,11.622,20.47,18.182Z" fill="#545250"/><path d="M32,40.2a8.359,8.359,0,0,1-3.5-.54c-3.41-1.82-6.82-5.81-6.82-8.2V29.4a4.838,4.838,0,0,1-2.86-3.77c-.47-2.25-.25-4.13,1.85-4.13v-3c0-5.16,3.16-10.32,11.36-10.32s11.34,5.31,11.34,10.47v3c2.07,0,2.31,1.77,1.83,4a4.89,4.89,0,0,1-2.86,3.74v2.06c0,2.4-3.38,6.39-6.82,8.2A8.64,8.64,0,0,1,32,40.2Z" fill="none" stroke="#333" stroke-linecap="round" stroke-linejoin="round" stroke-width="1.5"/><path d="M40.39,9.422c0-5.16-15.06-4.25-18.06-1.29H24.4A9.83,9.83,0,0,0,19.5,20c.54,1.58,2.07,2.58,2.07,5.68v-7c12.54-.07,10.32-4.89,16-4.89,0,4.39,4.65,3.55,4.65,5.68v6.19c0-3.1,1.52-3.59,2.07-5.38C45.05,17.362,45.3,9.422,40.39,9.422Z" fill="#e2b074"/><path d="M40.39,9.422c-2.08-1.26-7.27-1.42-10.62.45a14.467,14.467,0,0,1,8.29.36c-4.67-.8-8.62,2.68-12.36,3.79,2.91-.58,7.49-.83,10.18-2.09-3.08,1.35-9.18,6.21-13.81,6.24,10.27.29,10.26-3.47,15.48-4.36,0,4.39,4.65,3.55,4.65,5.68v6.19c0-3.1,1.52-3.59,2.07-5.38C45.05,17.362,45.3,9.422,40.39,9.422Z" fill="#cc9a64"/><path d="M22.33,8.132H24.4A9.83,9.83,0,0,0,19.5,20a10.274,10.274,0,0,0,1,1.87,11.761,11.761,0,0,1,5.98-12.45H25.19c2.42-2.42,10.27-3.1,15.11-.74C38.88,4.362,25.17,5.332,22.33,8.132Z" fill="#efc08e"/><path d="M40.25,11.282a1.7,1.7,0,0,1-.25,1.26,1.677,1.677,0,0,1-1.12.68,1.663,1.663,0,0,1,.27-1.28A1.723,1.723,0,0,1,40.25,11.282Z" fill="#e2b074"/><path d="M21.21,25.692c-.08-2.33-.16-4.65-.21-7a.54.54,0,0,1,.51-.55h0L23.66,18c.69-.08,1.39-.14,2.08-.24a16.143,16.143,0,0,0,4-1.05,15.278,15.278,0,0,0,3.43-2.22A6.742,6.742,0,0,1,35.2,13.4a7.659,7.659,0,0,1,2.34-.32.7.7,0,0,1,.72.68v.01h0a3.078,3.078,0,0,0,1.06,2.58,7.552,7.552,0,0,0,1.38.85,4.944,4.944,0,0,1,1.64,1.13,1.962,1.962,0,0,1,.3.55,3.278,3.278,0,0,1,.08.6v.88l-.05,1.76-.12,3.52a.339.339,0,0,1-.35.33h0a.35.35,0,0,1-.33-.33l-.12-3.52v-2.64a.689.689,0,0,0-.18-.46,4.447,4.447,0,0,0-1.29-.75,8.034,8.034,0,0,1-1.66-.92,3.82,3.82,0,0,1-1.29-1.62,5.383,5.383,0,0,1-.41-2l.72.72A5.572,5.572,0,0,0,34,15.722c-.54.4-1.11.88-1.75,1.29a11.054,11.054,0,0,1-2,1,17.888,17.888,0,0,1-4.33,1c-.73.08-1.45.12-2.18.16H21.57l.55-.55c-.05,2.33-.13,4.65-.21,7a.339.339,0,0,1-.35.33h0A.33.33,0,0,1,21.21,25.692Z" fill="#bc8957"/><path d="M41.85,25.692a6.781,6.781,0,0,1,.37-2.47,12.535,12.535,0,0,1,1.19-2.12,3.777,3.777,0,0,0,.41-1c.08-.36.15-.73.2-1.11a17.684,17.684,0,0,0,.15-2.3,11.847,11.847,0,0,0-.74-4.43,4.461,4.461,0,0,0-1.21-1.65,3.183,3.183,0,0,0-1.84-.57h0a.63.63,0,0,1-.6-.63c0-1.29-1.51-2.11-3-2.48a18.236,18.236,0,0,0-4.8-.46,26.351,26.351,0,0,0-4.86.5,17.7,17.7,0,0,0-2.32.63,5.8,5.8,0,0,0-1.93,1l-.5-1.22h2.06a.69.69,0,0,1,.3,1.31,9.3,9.3,0,0,0-5.14,7.43,8.518,8.518,0,0,0,.08,2.37,8.837,8.837,0,0,0,.26,1.16,4.661,4.661,0,0,0,.46,1.06,12.8,12.8,0,0,1,1.16,2.31,7.53,7.53,0,0,1,.37,2.61.345.345,0,0,1-.69,0,6.753,6.753,0,0,0-.44-2.33,12.726,12.726,0,0,0-1.2-2.12A5.517,5.517,0,0,1,19,20a9.248,9.248,0,0,1-.33-1.28,9.631,9.631,0,0,1-.17-2.63,10.291,10.291,0,0,1,1.66-5,10.476,10.476,0,0,1,3.93-3.57l.31,1.3H22.34a.7.7,0,0,1-.71-.69v-.01a.691.691,0,0,1,.22-.52,7,7,0,0,1,2.43-1.41,15.4,15.4,0,0,1,2.53-.7A27.907,27.907,0,0,1,31.92,5a19.5,19.5,0,0,1,5.18.62,7.6,7.6,0,0,1,2.5,1.17A3.3,3.3,0,0,1,41,9.442l-.63-.63A4.486,4.486,0,0,1,43,9.7a5.749,5.749,0,0,1,1.53,2.16,12.876,12.876,0,0,1,.72,4.88,16.654,16.654,0,0,1-.25,2.43c-.07.4-.16.8-.27,1.21a4.9,4.9,0,0,1-.55,1.18,13.051,13.051,0,0,0-1.22,2,6.073,6.073,0,0,0-.42,2.18.35.35,0,0,1-.35.34A.37.37,0,0,1,41.85,25.692Z" fill="#333"/><path d="M30.31,24.612a2.421,2.421,0,0,1,2.91,0" fill="none" stroke="#333" stroke-miterlimit="10" stroke-width="1.023"/><path d="M24,23.1h4.83a1.4,1.4,0,0,1,1,.41,1.52,1.52,0,0,1,.2,1.92l-1.12,1.68a1.918,1.918,0,0,1-1.6.86H25.2a2.719,2.719,0,0,1-2.72-2.69v-.65a1.5,1.5,0,0,1,1.5-1.5h0Z" fill="#dbd4d7"/><path d="M39.51,23.1h-4.8a1.4,1.4,0,0,0-1,.41,1.52,1.52,0,0,0-.2,1.92l1.13,1.69a1.936,1.936,0,0,0,1.6.85h2.11a2.72,2.72,0,0,0,2.72-2.72h0v-.64a1.49,1.49,0,0,0-1.49-1.49h0Z" fill="#dbd4d7"/><path d="M24,23.1h4.83a1.4,1.4,0,0,1,1,.41,1.52,1.52,0,0,1,.2,1.92l-1.12,1.68a1.918,1.918,0,0,1-1.6.86H25.2a2.719,2.719,0,0,1-2.72-2.69v-.65a1.5,1.5,0,0,1,1.5-1.5h0Z" fill="none" stroke="#333" stroke-linejoin="round" stroke-width="1.023"/><path d="M39.51,23.1h-4.8a1.4,1.4,0,0,0-1,.41,1.52,1.52,0,0,0-.2,1.92l1.13,1.69a1.936,1.936,0,0,0,1.6.85h2.11a2.72,2.72,0,0,0,2.72-2.72h0v-.64a1.49,1.49,0,0,0-1.49-1.49h0Z" fill="none" stroke="#333" stroke-linejoin="round" stroke-width="1.023"/><circle cx="27.12" cy="25.182" fill="#6c7881" r="0.75"/><circle cx="36.41" cy="25.182" fill="#6c7881" r="0.75"/></g></g></g></g></svg>